HIERARCHY
ROOT hips
{
  OFFSET 0 10.074487846421558 1.314567655973056
  CHANNELS 6 Xposition Yposition Zposition Yrotation Xrotation Zrotation
  JOINT spine
  {
    OFFSET -7.042773748992335e-31 0.5690686926897363 0
    CHANNELS 3 Yrotation Xrotation Zrotation
    JOINT chest
    {
      OFFSET 0 1.2435964857087873 0
      CHANNELS 3 Yrotation Xrotation Zrotation
      JOINT upperChest
      {
        OFFSET 0 1.194994586872362 0
        CHANNELS 3 Yrotation Xrotation Zrotation
        JOINT neck
        {
          OFFSET 0 1.515103653293861 0
          CHANNELS 3 Yrotation Xrotation Zrotation
          JOINT head
          {
            OFFSET 0 0.8111851616465653 0
            CHANNELS 3 Yrotation Xrotation Zrotation
            JOINT leftEye
            {
              OFFSET 0.27141371691966987 0.7490044407698551 0.18219031050045686
              CHANNELS 3 Yrotation Xrotation Zrotation
              End Site
              {
                OFFSET 0.27141371691966987 0.7490044407698551 0.18219031050045686
              }
            }
            JOINT rightEye
            {
              OFFSET -0.2714136877644943 0.7490044019380786 0.18219040411850668
              CHANNELS 3 Yrotation Xrotation Zrotation
              End Site
              {
                OFFSET -0.2714136877644943 0.7490044019380786 0.18219040411850668
              }
            }
          }
        }
        JOINT leftShoulder
        {
          OFFSET 0.4137993136083964 1.1593397335613034 0
          CHANNELS 3 Yrotation Xrotation Zrotation
          JOINT leftUpperArm
          {
            OFFSET 1.0096991868951026 0 0
            CHANNELS 3 Yrotation Xrotation Zrotation
            JOINT leftLowerArm
            {
              OFFSET 2.418380967671622 0 0
              CHANNELS 3 Yrotation Xrotation Zrotation
              JOINT leftHand
              {
                OFFSET 2.361538296260114 0 0
                CHANNELS 3 Yrotation Xrotation Zrotation
                JOINT leftIndexProximal
                {
                  OFFSET 0.7243699271447109 0.08118285989887508 0.2022042461579805
                  CHANNELS 3 Yrotation Xrotation Zrotation
                  JOINT leftIndexIntermediate
                  {
                    OFFSET 0.36553107045252053 -0.010567764853200323 -0.014102670024158437
                    CHANNELS 3 Yrotation Xrotation Zrotation
                    JOINT leftIndexDistal
                    {
                      OFFSET 0.22505120770060527 -0.007821041598631284 -0.007511611613336286
                      CHANNELS 3 Yrotation Xrotation Zrotation
                      End Site
                      {
                        OFFSET 0.22505120770060527 -0.007821041598631284 -0.007511611613336286
                      }
                    }
                  }
                }
                JOINT leftLittleProximal
                {
                  OFFSET 0.6721063881632002 0.08118279568569564 -0.3209324945517917
                  CHANNELS 3 Yrotation Xrotation Zrotation
                  JOINT leftLittleIntermediate
                  {
                    OFFSET 0.34587329423120616 5.3042709780015684e-8 -5.929537746918179e-8
                    CHANNELS 3 Yrotation Xrotation Zrotation
                    JOINT leftLittleDistal
                    {
                      OFFSET 0.1992782500022232 0.0030983716482184676 0.0038310952896712935
                      CHANNELS 3 Yrotation Xrotation Zrotation
                      End Site
                      {
                        OFFSET 0.1992782500022232 0.0030983716482184676 0.0038310952896712935
                      }
                    }
                  }
                }
                JOINT leftMiddleProximal
                {
                  OFFSET 0.7301229696860206 0.08118412848995638 0.022516891543707507
                  CHANNELS 3 Yrotation Xrotation Zrotation
                  JOINT leftMiddleIntermediate
                  {
                    OFFSET 0.4076277831942017 -0.000001240188283180288 -1.6203245635504349e-7
                    CHANNELS 3 Yrotation Xrotation Zrotation
                    JOINT leftMiddleDistal
                    {
                      OFFSET 0.2514739255593972 0.0000013850839168938478 -1.8644847207816007e-8
                      CHANNELS 3 Yrotation Xrotation Zrotation
                      End Site
                      {
                        OFFSET 0.2514739255593972 0.0000013850839168938478 -1.8644847207816007e-8
                      }
                    }
                  }
                }
                JOINT leftRingProximal
                {
                  OFFSET 0.7218060861525873 0.08118280646416753 -0.1494689818508163
                  CHANNELS 3 Yrotation Xrotation Zrotation
                  JOINT leftRingIntermediate
                  {
                    OFFSET 0.3781267508900358 0.000001373626195677602 -1.4143108284514483e-7
                    CHANNELS 3 Yrotation Xrotation Zrotation
                    JOINT leftRingDistal
                    {
                      OFFSET 0.21814333268795483 -0.0027137626495670197 -0.004991775417842292
                      CHANNELS 3 Yrotation Xrotation Zrotation
                      End Site
                      {
                        OFFSET 0.21814333268795483 -0.0027137626495670197 -0.004991775417842292
                      }
                    }
                  }
                }
                JOINT leftThumbProximal
                {
                  OFFSET 0.10743676110519984 -0.16423092885053192 -0.07708859146227388
                  CHANNELS 3 Yrotation Xrotation Zrotation
                  JOINT leftThumbIntermediate
                  {
                    OFFSET 0.40350402100066307 -0.01735099334274981 0.315629965828783
                    CHANNELS 3 Yrotation Xrotation Zrotation
                    JOINT leftThumbDistal
                    {
                      OFFSET 0.2320014489535681 -0.01842351809041043 0.21271298411519196
                      CHANNELS 3 Yrotation Xrotation Zrotation
                      End Site
                      {
                        OFFSET 0.2320014489535681 -0.01842351809041043 0.21271298411519196
                      }
                    }
                  }
                }
              }
            }
          }
        }
        JOINT rightShoulder
        {
          OFFSET -0.41379931360839656 1.1593397335613034 0
          CHANNELS 3 Yrotation Xrotation Zrotation
          JOINT rightUpperArm
          {
            OFFSET -1.0096991868951024 0 0
            CHANNELS 3 Yrotation Xrotation Zrotation
            JOINT rightLowerArm
            {
              OFFSET -2.4183809676716232 0 0
              CHANNELS 3 Yrotation Xrotation Zrotation
              JOINT rightHand
              {
                OFFSET -2.3615382962601132 0 0
                CHANNELS 3 Yrotation Xrotation Zrotation
                JOINT rightIndexProximal
                {
                  OFFSET -0.7243699271447109 0.08118285989887508 0.2022042461579805
                  CHANNELS 3 Yrotation Xrotation Zrotation
                  JOINT rightIndexIntermediate
                  {
                    OFFSET -0.36553107045252053 -0.010567764853200323 -0.014102670024158437
                    CHANNELS 3 Yrotation Xrotation Zrotation
                    JOINT rightIndexDistal
                    {
                      OFFSET -0.22505120770060527 -0.007821041598631284 -0.007511611613336286
                      CHANNELS 3 Yrotation Xrotation Zrotation
                      End Site
                      {
                        OFFSET -0.22505120770060527 -0.007821041598631284 -0.007511611613336286
                      }
                    }
                  }
                }
                JOINT rightLittleProximal
                {
                  OFFSET -0.6721063881632002 0.08118279568569564 -0.3209324945517917
                  CHANNELS 3 Yrotation Xrotation Zrotation
                  JOINT rightLittleIntermediate
                  {
                    OFFSET -0.34587329423120616 5.3042709780015684e-8 -5.929537746918179e-8
                    CHANNELS 3 Yrotation Xrotation Zrotation
                    JOINT rightLittleDistal
                    {
                      OFFSET -0.1992782500022232 0.0030983716482184676 0.0038310952896712935
                      CHANNELS 3 Yrotation Xrotation Zrotation
                      End Site
                      {
                        OFFSET -0.1992782500022232 0.0030983716482184676 0.0038310952896712935
                      }
                    }
                  }
                }
                JOINT rightMiddleProximal
                {
                  OFFSET -0.7301229696860206 0.08118412848995638 0.022516891543707507
                  CHANNELS 3 Yrotation Xrotation Zrotation
                  JOINT rightMiddleIntermediate
                  {
                    OFFSET -0.4076277831942017 -0.000001240188283180288 -1.6203245635504349e-7
                    CHANNELS 3 Yrotation Xrotation Zrotation
                    JOINT rightMiddleDistal
                    {
                      OFFSET -0.2514739255593972 0.0000013850839168938478 -1.8644847207816007e-8
                      CHANNELS 3 Yrotation Xrotation Zrotation
                      End Site
                      {
                        OFFSET -0.2514739255593972 0.0000013850839168938478 -1.8644847207816007e-8
                      }
                    }
                  }
                }
                JOINT rightRingProximal
                {
                  OFFSET -0.7218060861525873 0.08118280646416753 -0.1494689818508163
                  CHANNELS 3 Yrotation Xrotation Zrotation
                  JOINT rightRingIntermediate
                  {
                    OFFSET -0.3781267508900358 0.000001373626195677602 -1.4143108284514483e-7
                    CHANNELS 3 Yrotation Xrotation Zrotation
                    JOINT rightRingDistal
                    {
                      OFFSET -0.21814333268795483 -0.0027137626495670197 -0.004991775417842292
                      CHANNELS 3 Yrotation Xrotation Zrotation
                      End Site
                      {
                        OFFSET -0.21814333268795483 -0.0027137626495670197 -0.004991775417842292
                      }
                    }
                  }
                }
                JOINT rightThumbProximal
                {
                  OFFSET -0.10743676110519984 -0.16423092885053192 -0.07708859146227388
                  CHANNELS 3 Yrotation Xrotation Zrotation
                  JOINT rightThumbIntermediate
                  {
                    OFFSET -0.40350402100066307 -0.01735099334274981 0.315629965828783
                    CHANNELS 3 Yrotation Xrotation Zrotation
                    JOINT rightThumbDistal
                    {
                      OFFSET -0.2320014489535681 -0.01842351809041043 0.21271298411519196
                      CHANNELS 3 Yrotation Xrotation Zrotation
                      End Site
                      {
                        OFFSET -0.2320014489535681 -0.01842351809041043 0.21271298411519196
                      }
                    }
                  }
                }
              }
            }
          }
        }
      }
    }
  }
  JOINT leftUpperLeg
  {
    OFFSET 0.8487163290887698 -0.43932186100277326 0
    CHANNELS 3 Yrotation Xrotation Zrotation
    JOINT leftLowerLeg
    {
      OFFSET 0 -3.882816707004296 0
      CHANNELS 3 Yrotation Xrotation Zrotation
      JOINT leftFoot
      {
        OFFSET 0 -4.570431027442807 0.004629272230691511
        CHANNELS 3 Yrotation Xrotation Zrotation
        JOINT leftToes
        {
          OFFSET 0 -0.698875637876343 1.214565366696912
          CHANNELS 3 Yrotation Xrotation Zrotation
          End Site
          {
            OFFSET 0 -0.698875637876343 1.214565366696912
          }
        }
      }
    }
  }
  JOINT rightUpperLeg
  {
    OFFSET -0.8487163290887698 -0.43932186100277326 0
    CHANNELS 3 Yrotation Xrotation Zrotation
    JOINT rightLowerLeg
    {
      OFFSET 0 -3.882816707004296 0
      CHANNELS 3 Yrotation Xrotation Zrotation
      JOINT rightFoot
      {
        OFFSET 0 -4.570431027442807 0.004629272230691511
        CHANNELS 3 Yrotation Xrotation Zrotation
        JOINT rightToes
        {
          OFFSET 0 -0.698875637876343 1.214565366696912
          CHANNELS 3 Yrotation Xrotation Zrotation
          End Site
          {
            OFFSET 0 -0.698875637876343 1.214565366696912
          }
        }
      }
    }
  }
}
MOTION
Frames: 4
Frame Time: 0.03333333333333333
-0.09360124915838242 -0.148041885423023 0.6021184921264648 -0.5455722007523373 3.0222610199903928 0.7152267837537377 0.35302171008410965 1.0701266088262997 -0.2170853907991853 1.3897569576549746 4.252706576062508 -0.6012395096182263 0 0 0 -2.658466612816839 1.305718617163752 -4.08564586371907 -12.867558392804776 -19.377247308062 -8.813655093787924 0 0 0 0 0 0 -10.657350355080595 1.4819786222588067 -2.7924409126207026 0.7513152392315371 -5.467164655588906 -47.41567115344753 -12.759202526161914 -7.24332872236826 0.9756383947071354 -19.858257671411096 17.02302009304055 -11.004830443470263 -4.65952906934503 -14.826784641782034 -33.42499333734163 2.2539665201463968 0.4267259898352896 -21.43994557883064 1.6025511388247147 0.21190136577171764 -15.06510916709821 8.356445398228088 9.027917187550086 -45.23194292067843 -0.941427050929257 0.8596961417076181 -30.90980603589192 0.6315630801641808 0.03243323171213632 -5.879787017898305 -3.025975644353291 -9.9969111444663 -30.732724638246562 2.1184651222114605 0.3753422835367663 -20.09382038769105 0.5064524164804117 0.020825804191844287 -4.7121958688497205 1.5900852081879802 -2.4797872198619393 -33.17189953618702 2.4050548782512116 0.48837313714662345 -22.955101566017145 0.48157257310847007 0.018839638089464213 -4.480324050200117 -1.9252514955483968 -6.21720019893613 19.153844161849396 28.648727932224162 21.639041708652492 4.641982817477528 4.135233724307695 1.9980905873590735 2.2233545897516334 8.101446538347322 1.2808431346080629 -13.863415403200085 42.74571580628142 -28.636413177313464 -30.31302230141588 26.903267694707942 -14.544103155731657 -3.843829082561233 31.90435944012703 0.5219118972070225 -12.286322670962926 9.109443428935657 -8.031960210347322 9.008884010957008 -0.42258276987018933 0.0143452783769666 3.8876663900885386 0.11526386924865162 0.001074187944608766 -1.0596011826732565 5.416812158904913 0.016171715382081182 -21.801773815384692 -1.786761901180641 0.2616007826579518 16.656834399944955 -0.41297424020836127 0.013714026138448373 3.7993059712048742 0.5798847812257434 -2.627413008336092 18.96137235955169 -0.8206068045354618 0.054258503937898606 7.565511654137679 0.8004554032071657 1.3990177854599537 0.15183965690837847 -0.20609374583085135 0.20383658016699516 -1.5435912563487673 -2.047870771772462 0.3460116958414794 19.178279389758615 0.14191834494649855 0.22878811957456352 -0.08782640609461924 -18.306027647546067 -1.3190250749958552 -13.066469126779019 -8.673393382132234 4.601449506756055 -0.8330030461904204 2.0229364011101327 -9.54190557745501 -2.566688766232401 3.419990858799412 -5.643790183797057 -0.7448518245514065 3.0888047360980084 13.634051036375986 1.1116853218659373 -0.06376302938531515 -10.960674176949288 -0.8561641873534875 -0.0000013772814875465031 -1.330985799965581 0.000001103757025529596 -8.057016309680872 -6.479273679072627 1.459636293274697 -0.37917630675806935 15.0557241684749 -1.8616572748178313 0.18771202658383512 -11.665847574309788 0.10480253671095717 6.570256565900088e-16 -0.30053802593848306 4.94227539063333e-16
-0.09470538049936295 -0.14784924321110893 0.6035358309745789 -0.39996680516336375 2.9651760051089067 0.7313387310585088 0.3388450746987287 1.0681569302810474 -0.22088214387145982 1.3314292057744628 4.248896375151679 -0.6065256759998489 0 0 0 -2.6335520782431665 1.3523655645793 -4.098569086912329 -12.771923152674354 -19.194742907103908 -8.814155678042146 0 0 0 0 0 0 -10.65804662683229 1.4798673886221807 -2.794492088807399 0.7211683353518512 -5.492801976107304 -47.412137410649784 -12.711546660131198 -7.217099701893121 0.9690364168670854 -19.918810750099816 16.971303679177655 -11.14557037044017 -4.685056734858232 -14.816907380536978 -33.34883717234905 2.2877609829111765 0.4401221350272797 -21.777280933637677 1.5996936446246548 0.21111139298281276 -15.037558474309549 8.350691021435479 9.020180148939119 -45.27680306099137 -0.9405879113543714 0.8602263415002777 -30.9189226444299 0.6313906440553064 0.032407004848741976 -5.87826210042073 -3.0235711893305317 -9.995413082093528 -30.73773260534566 2.1181411641810652 0.37523446562066726 -20.090741689908523 0.5048372556349591 0.0206962657103681 -4.697152572749891 1.5929820933338985 -2.479760941714339 -33.19307727947008 2.4044714534077793 0.4881137406227125 -22.949105647111626 0.4792337305157428 0.018652444872450942 -4.458470747279482 -1.908823853035935 -6.201187224193011 19.150081836478076 28.649046084381386 21.63852734683268 4.646592706375666 4.133595950161528 1.9962107165442278 2.2228510372302748 8.073265975371045 1.2799082324836677 -13.880367253943525 42.27403686610696 -28.795943348522584 -30.05068668244274 26.957518126064393 -14.56986372347826 -3.8580947479902115 32.2077087350155 0.31084946384526224 -12.054312336837334 8.693796599516363 -8.441785863083139 11.076283434453178 -0.4824857092398224 0.018709145784241037 4.4399888611149905 0.1174994778511772 0.0011206116781913814 -1.0803384531930516 4.762402039229956 -0.029542533815723457 -20.443187178476908 -1.80693153392389 0.2676597586883563 16.850294461710007 -0.4076467469113385 0.013338005537862038 3.750185948598253 0.5278161016919832 -2.74255277158982 19.888032759714044 -0.8409373887749779 0.05701409970122316 7.753641169763279 0.8122952385809041 1.4198828557731968 0.15594030226385094 -0.11267550781348847 0.12673067486750988 -1.0656371770776747 -2.0484288855988653 0.3462023042856588 19.18380660373202 0.1317787377925435 0.22686433889752916 -0.00041088221687769213 -18.455213318656668 -1.2999584248162264 -12.920802021148871 -8.673671371573937 4.602216533711716 -0.8285553180343699 1.8856403620113669 -9.402106559136081 -2.5527078271424917 3.303791606761361 -5.5460841528826 -0.7260837586993565 3.000796057817433 13.55261568289553 1.0786513999965988 -0.05162266943580473 -10.91926405701653 -0.9371787173506484 -0.000007645350474428297 -1.2653433168028205 -3.2526993740881445e-7 -8.084231938135353 -6.386845709843844 1.4294808955858784 -0.48377033886164 15.029221596822053 -1.8545644611959382 0.18629983187422416 -11.6808618032245 0.12025314936870335 0.000006752439410498169 -0.2793041632714258 -7.276449388608469e-7
-0.09583459049463272 -0.14776341252263236 0.6044149398803711 -0.25779108284130825 2.917972268600974 0.7507394158388409 0.33187681176263284 1.0669939954298182 -0.22608132777134865 1.302295471450852 4.246537321874095 -0.6112480551797945 0 0 0 -2.616092283657381 1.3885777405972037 -4.12035916529549 -12.715125537445171 -19.052847416729094 -8.826466690932094 0 0 0 0 0 0 -10.65765899207181 1.4783222905622995 -2.7970391717514236 0.6803924787285588 -5.523598925072687 -47.4041061427491 -12.664817317489476 -7.191363571640647 0.9625508063835855 -19.99890585106682 16.97331571740252 -11.288661442480903 -4.5797337032784355 -14.826532052412471 -33.62450914306916 2.283185268341949 0.4383020762615145 -21.73162843060528 1.5998405327958045 0.21115376178766898 -15.039067803817023 8.351792157253348 9.032879353306928 -45.30082458147843 -0.9431868629613908 0.8586588501872338 -30.89043178247281 0.6313003096025337 0.03240107845807001 -5.877533363269104 -3.022785900907275 -9.986537550881938 -30.723954238182564 2.118068728527337 0.3752032221713358 -20.089883864542493 0.5005537616889513 0.02034696721246655 -4.65724871439388 1.6005256739498572 -2.4727404221148186 -33.221729404406005 2.4037496174545145 0.4878143220184753 -22.941969555814573 0.47917941106353695 0.018645668043774842 -4.45799499091204 -1.9114849185000102 -6.203383606476027 19.15337062548796 28.648518349755978 21.63819668663012 4.647999227534225 4.131255656019301 1.9938680357345808 2.2221030551157956 8.058818188086063 1.2824281350156108 -13.906392520631176 41.82098506225571 -29.225429379202247 -29.761520231578807 26.86116871444501 -14.524071196012814 -3.832749549560598 32.563605283433084 -0.048041691956423126 -11.253992487338236 8.220475365247282 -8.862441899699183 13.299886521702582 -0.5568452760579861 0.02492672446895493 5.12580666472781 0.1225660477186178 0.001202895051349543 -1.1267812608996737 3.6070817706450518 -0.08482115540698638 -17.53811614244241 -1.914665877972081 0.3013384497725985 17.88736970303007 -0.40068982138545917 0.01290072417588139 3.6860456495620153 0.557138180048901 -2.9169968486010083 20.596426341686108 -0.8682545616149354 0.060772246525341196 8.007587394926446 0.8355363798357832 1.4591388445103146 0.1517041679941548 -0.038422663084429404 0.06868197082354624 -0.7724541686165007 -2.060246004100257 0.3503390741072419 19.29871288304316 0.11537195807939284 0.22477879380496715 0.14640536468733095 -18.915766330919972 -1.16621259525022 -12.640904979923032 -8.668181118470157 4.596366421584444 -0.8235595910059614 1.506734191618609 -9.015098863430238 -2.516792085266775 3.2254391251719587 -5.457153096143431 -0.7067693884016552 2.867630749956796 13.46299271129156 1.0301497929086503 -0.03716157405985023 -10.869748363282591 -1.0324871951196177 -0.000008408380931211918 -1.1740910471851869 7.434518018576967e-7 -8.079544292216992 -6.322256620583818 1.3976264554523428 -0.6181186555744395 15.027434131151425 -1.8515498278152096 0.18697181267789775 -11.703718609987426 0.11899274564439105 4.955142214552713e-7 -0.24893046921223355 -6.400549280535903e-9
-0.09644781798124313 -0.1477243118756597 0.6046127080917358 -0.18473545653612627 2.903774904410471 0.7601055026618512 0.33096992486184384 1.065337814715248 -0.22873846908899048 1.2985655273241647 4.239156284123812 -0.6156798241597724 0 0 0 -2.6108397658307294 1.4039665639879293 -4.133233004752316 -12.707609405985 -18.994877537422983 -8.824486359920753 0 0 0 0 0 0 -10.656837182241915 1.4778360113912763 -2.7991334547048585 0.664423651913805 -5.531366390188959 -47.39972312808117 -12.655373205941979 -7.186167642500368 0.9612688597905668 -20.010916190792436 17.002115044446278 -11.360079163749525 -4.543801847834817 -14.818542961698558 -33.70467481411876 2.2830652688102346 0.438255464192805 -21.730446624095492 1.6009662335778674 0.2114760902117711 -15.049935853233766 8.351371750761905 9.041714598062162 -45.33095998385249 -0.9428630205828352 0.8588564676219174 -30.89424618436967 0.6313170638958426 0.03240684143110386 -5.877611347681044 -3.0322087542389182 -9.986822763932523 -30.694072110502603 2.118250501106894 0.37525546356660855 -20.091823749698882 0.49860569547102335 0.02018590914062702 -4.639112215162859 1.603498577836676 -2.4658098826174895 -33.217643699160966 2.403837838446879 0.4878775569213078 -22.94280971507762 0.47928911714686934 0.01865512792297755 -4.458924532816919 -1.8923896261115236 -6.182475190707728 19.160615292861912 28.647382728853632 21.63822607861747 4.646760762953991 4.129832943532712 1.9925174024212309 2.2216947606867885 8.055446799896965 1.2834376552506954 -13.914510860303192 41.56104463920514 -29.468814848035937 -29.615584300268544 26.841268189336784 -14.514592104106821 -3.827523529776549 32.558108351488215 -0.2649689018921605 -10.784315560217978 7.95526296044558 -9.0572987002298 14.439957543965182 -0.594570213149639 0.028414215101964842 5.474401918626586 0.12855477836731988 0.0013302667819083554 -1.1820132832144483 2.8953918636435674 -0.08540168210630529 -15.513914259427136 -2.016427832247513 0.3351658041297964 18.87266176492218 -0.39596918339657083 0.012590973588582612 3.642518491826876 0.6297867687206924 -3.035784692089058 20.74945562806065 -0.8814514460323837 0.06264177844122672 8.130254368209396 0.8531653885622236 1.4889305693058372 0.1479616609514594 -0.013988267996687492 0.05914132452456875 -0.84040213329331 -2.072132368573718 0.3544936953020369 19.414449008676378 0.10613936350293056 0.22374143753840423 0.22954875319710877 -19.306598529111195 -1.0124318623811444 -12.479415450439616 -8.664634628140979 4.592524902629112 -0.8210999135633117 1.207047179310527 -8.707758098295255 -2.491167472140993 3.1970497184675306 -5.425426054754629 -0.6952579031525882 2.789431468372412 13.42010772835056 0.999730385169256 -0.030605548073686754 -10.843399743450298 -1.07519560780164 -8.456483259000428e-7 -1.1275057358618574 -6.293181929396099e-7 -8.081075316569773 -6.301677588541239 1.3852224633785537 -0.6849194053271632 15.02727501030406 -1.8516284174547863 0.18800773936079798 -11.713448321874687 0.11612963192623757 -0.000002526627667674911 -0.23401493778620697 8.864443730098762e-7
